:SAMPLES-PER-SECOND 30
:FULLY-SPECIFIED
:DEGREES
191
root  -3.75287 34.4379 -8.48663 10.037 -37.7457 -0.572169
RightUpLeg  -16.0019 -15.0635 -0.559477
RightLeg  15.9521 -5.29245 -1.14866
RightFoot  1.12813 0.00322632 0.133586
RightToes  -25.1272 -0.111846 -0.216714
Spine  0.650867 2.7328 -0.923166
Spine1  1.13271 5.82602 -1.29051
HEad  -62.4281 -18.6651 3.41669
LeftShoulder1  -1.94126e-019 -3.10601e-018 -2.51263e-017
LeftArm  -9.51243 20.7448 -80.2685
LeftForeArm  31.1137 -15.1496 -2.66047
LeftHand  -0.40205 -1.17558 7.25571
RightShoulder  -4.96962e-017 0 -2.36833e-017
RightArm  -6.40349 -1.44886 83.2935
RightForeArm  31.7414 47.5507 9.87
RightHand  0.38326 -8.10604 -17.1183
LeftUpLeg  -22.0625 -3.45073 1.40754
LeftLeg  15.8176 11.9391 2.54488
LeftFoot  6.89869 -0.0927126 1.69961
LeftToes  -21.523 1.34695e-006 1.12385e-007
192
root  -3.89054 34.4866 -8.19999 9.1937 -39.7189 -0.42553
RightUpLeg  -14.2614 -13.5621 -1.21395
RightLeg  14.4806 -4.96191 -0.944177
RightFoot  1.71554 0.00346491 0.0888475
RightToes  -25.7995 -0.116091 -0.221738
Spine  0.281232 3.19595 -0.785318
Spine1  0.400137 6.77685 -1.02135
HEad  -62.2655 -17.8266 3.10141
LeftShoulder1  -1.94126e-019 -3.10601e-018 -2.51263e-017
LeftArm  -10.5501 21.0287 -80.8894
LeftForeArm  31.1047 -14.5482 -2.56263
LeftHand  -0.412105 -0.937135 7.69415
RightShoulder  -4.96962e-017 0 -2.36833e-017
RightArm  -4.69078 3.98683 85.296
RightForeArm  36.4343 26.5638 3.72082
RightHand  -0.0677737 -5.09345 -23.9185
LeftUpLeg  -20.1837 -2.39511 1.02973
LeftLeg  15.2069 12.755 2.57556
LeftFoot  6.56834 -0.089919 1.72847
LeftToes  -21.1679 1.34695e-006 1.12385e-007
193
root  -3.99539 34.511 -7.92659 7.99996 -41.0592 -0.112487
RightUpLeg  -12.5098 -12.2243 -1.96996
RightLeg  13.4887 -4.96494 -0.85584
RightFoot  2.15523 0.00392591 0.0451289
RightToes  -25.4412 -0.117488 -0.224093
Spine  0.319193 3.86574 -0.592061
Spine1  0.512667 8.08146 -0.601977
HEad  -63.9668 -17.756 3.31587
LeftShoulder1  -1.94126e-019 -3.10601e-018 -2.51263e-017
LeftArm  -10.35 20.4677 -81.4865
LeftForeArm  29.6143 -15.7748 -2.75417
LeftHand  -0.411792 -0.945502 7.67894
RightShoulder  -4.96962e-017 0 -2.36833e-017
RightArm  -4.82295 2.09162 83.9181
RightForeArm  35.6999 29.6067 4.42429
RightHand  0.213174 -6.35392 -25.9346
LeftUpLeg  -18.2989 -2.21948 0.590935
LeftLeg  14.729 13.8279 2.66959
LeftFoot  6.26149 -0.0915085 1.77719
LeftToes  -20.0483 1.34695e-006 1.12385e-007
194
root  -4.05264 34.5286 -7.70331 7.53762 -40.9652 0.0783456
RightUpLeg  -11.4794 -11.7015 -2.421
RightLeg  12.8166 -5.74344 -0.920305
RightFoot  2.58027 0.00691497 -0.0306697
RightToes  -25.4085 -0.117733 -0.225998
Spine  0.223786 4.04986 -0.651811
Spine1  0.330594 8.41161 -0.698941
HEad  -66.582 -17.7549 5.65822
LeftShoulder1  -1.94126e-019 -3.10601e-018 -2.51263e-017
LeftArm  -10.9716 20.6456 -81.3777
LeftForeArm  28.5956 -19.2526 -3.23782
LeftHand  -0.400898 -0.881878 7.54933
RightShoulder  -4.96962e-017 0 -2.36833e-017
RightArm  -8.00503 -3.91889 82.1493
RightForeArm  34.5796 46.4024 9.23734
RightHand  0.220894 -6.57512 -22.3666
LeftUpLeg  -17.5753 -2.83256 0.314153
LeftLeg  14.639 14.3212 2.73973
LeftFoot  6.09764 -0.0918433 1.78659
LeftToes  -19.5768 1.34695e-006 1.12385e-007
195
root  -4.10013 34.5348 -7.49583 7.24306 -39.7445 0.228204
RightUpLeg  -10.6204 -12.6616 -2.76472
RightLeg  12.4731 -5.83694 -0.899371
RightFoot  2.99319 0.008459 -0.0819261
RightToes  -25.2139 -0.117271 -0.227489
Spine  -0.0430258 3.34324 -0.560025
Spine1  -0.188521 6.96241 -0.500298
HEad  -68.0718 -16.0512 6.7194
LeftShoulder1  -1.94126e-019 -3.10601e-018 -2.51263e-017
LeftArm  -11.644 22.2698 -81.3628
LeftForeArm  25.6769 -22.9376 -3.66268
LeftHand  -0.404638 -0.665075 7.87293
RightShoulder  -4.96962e-017 0 -2.36833e-017
RightArm  -10.8158 -7.45376 80.8858
RightForeArm  39.5311 63.2049 18.4542
RightHand  0.180781 -6.9638 -14.7525
LeftUpLeg  -17.2003 -3.31397 0.01845
LeftLeg  14.5512 13.6405 2.59072
LeftFoot  6.10655 -0.0870539 1.70486
LeftToes  -19.0697 1.34695e-006 1.12385e-007
196
root  -4.15776 34.5382 -7.2979 6.55306 -38.7218 0.583315
RightUpLeg  -9.66488 -13.4644 -3.33947
RightLeg  12.5006 -6.04568 -0.934376
RightFoot  2.90878 0.00697445 -0.0861588
RightToes  -25.4618 -0.116544 -0.228603
Spine  -0.263546 2.39511 -0.407472
Spine1  -0.615396 5.03686 -0.175191
HEad  -67.4316 -13.759 6.52844
LeftShoulder1  -1.94126e-019 -3.10601e-018 -2.51263e-017
LeftArm  -12.7982 23.9706 -81.6342
LeftForeArm  24.2434 -25.5207 -4.13466
LeftHand  -0.420138 -0.500396 8.38512
RightShoulder  -4.96962e-017 0 -2.36833e-017
RightArm  -12.5274 -6.16724 80.5163
RightForeArm  50.6715 73.0036 32.1443
RightHand  0.298599 -9.2471 -9.99313
LeftUpLeg  -16.305 -3.36452 -0.473954
LeftLeg  14.0058 12.7601 2.30206
LeftFoot  6.20949 -0.0823424 1.62125
LeftToes  -18.587 1.34695e-006 1.12385e-007
197
root  -4.23788 34.5623 -7.1043 5.32416 -38.8649 1.18215
RightUpLeg  -8.55292 -13.269 -4.17187
RightLeg  12.626 -6.06705 -0.951261
RightFoot  2.85039 0.00508824 -0.0810601
RightToes  -25.7128 -0.115998 -0.229376
Spine  -0.346934 2.00164 -0.305151
Spine1  -0.776978 4.2468 0.0356978
HEad  -64.7973 -12.9293 5.81601
LeftShoulder1  -1.94126e-019 -3.10601e-018 -2.51263e-017
LeftArm  -12.4308 24.4015 -82.0612
LeftForeArm  24.1238 -25.9882 -4.24092
LeftHand  -0.43936 -0.406718 8.89854
RightShoulder  -4.96962e-017 0 -2.36833e-017
RightArm  -13.6831 -2.14591 81.3408
RightForeArm  51.4247 73.5857 33.67
RightHand  0.447347 -10.1852 -11.6222
LeftUpLeg  -14.4845 -3.20882 -1.12369
LeftLeg  12.7421 12.8152 2.02393
LeftFoot  6.52435 -0.0873607 1.69418
LeftToes  -18.0647 1.34695e-006 1.12385e-007
198
root  -4.32212 34.6032 -6.96554 4.51069 -40.1159 1.50177
RightUpLeg  -7.79353 -12.1106 -4.61515
RightLeg  12.3388 -5.9837 -0.90754
RightFoot  3.18121 0.00594855 -0.111772
RightToes  -25.7971 -0.116076 -0.229845
Spine  -0.515595 2.24409 -0.321474
Spine1  -1.11465 4.74554 -0.00588417
HEad  -61.8418 -13.4366 5.61921
LeftShoulder1  -1.94126e-019 -3.10601e-018 -2.51263e-017
LeftArm  -10.0686 23.6248 -82.0759
LeftForeArm  24.2751 -24.8285 -3.99266
LeftHand  -0.429045 -0.466036 8.60843
RightShoulder  -4.96962e-017 0 -2.36833e-017
RightArm  -13.5728 0.523631 82.2191
RightForeArm  46.9641 69.78 25.8077
RightHand  0.831454 -11.9217 -15.2341
LeftUpLeg  -12.7303 -2.99392 -1.42078
LeftLeg  11.2503 13.8499 1.82018
LeftFoot  6.88105 -0.100859 1.90364
LeftToes  -17.6748 1.34695e-006 1.12385e-007
199
root  -4.39176 34.639 -6.86077 4.19476 -41.7823 1.63344
RightUpLeg  -7.33545 -11.0909 -4.79187
RightLeg  11.5681 -5.42165 -0.748095
RightFoot  3.67977 0.00671604 -0.13787
RightToes  -26.0319 -0.116842 -0.230046
Spine  -0.764518 2.72069 -0.389694
Spine1  -1.59878 5.65791 -0.125771
HEad  -60.1362 -14.3825 5.78097
LeftShoulder1  -1.94126e-019 -3.10601e-018 -2.51263e-017
LeftArm  -7.8433 22.2291 -82.0937
LeftForeArm  26.2221 -22.6743 -3.57777
LeftHand  -0.396735 -1.07284 7.26688
RightShoulder  -4.96962e-017 0 -2.36833e-017
RightArm  -12.3134 1.31527 81.8577
RightForeArm  41.1245 62.64 17.7798
RightHand  1.0288 -14.263 -13.8788
LeftUpLeg  -11.4335 -2.5884 -1.53325
LeftLeg  9.86218 15.1063 1.61517
LeftFoot  7.18184 -0.115872 2.13578
LeftToes  -17.5938 1.34695e-006 1.12385e-007
200
root  -4.45101 34.6566 -6.7728 3.91579 -43.1107 1.70917
RightUpLeg  -6.75902 -10.6593 -4.9438
RightLeg  10.6477 -4.56707 -0.555764
RightFoot  4.12421 0.00512464 -0.127122
RightToes  -26.506 -0.117961 -0.230015
Spine  -0.959143 2.92144 -0.452984
Spine1  -1.98555 6.03353 -0.247849
HEad  -59.3251 -14.5279 6.1378
LeftShoulder1  -1.94126e-019 -3.10601e-018 -2.51263e-017
LeftArm  -7.22505 21.1639 -82.2097
LeftForeArm  29.6078 -20.777 -3.25474
LeftHand  -0.384411 -1.54605 6.60114
RightShoulder  -4.96962e-017 0 -2.36833e-017
RightArm  -11.3842 3.33944 82.1708
RightForeArm  33.3588 46.5361 9.40258
RightHand  0.427204 -10.6392 -10.267
LeftUpLeg  -10.4824 -1.74556 -1.63069
LeftLeg  8.98948 15.6269 1.43231
LeftFoot  7.26256 -0.121461 2.22137
LeftToes  -17.4634 1.34695e-006 1.12385e-007
